<?xml version="1.0" encoding="UTF-8" standalone="no"?>
<svg
   xmlns:dc="http://purl.org/dc/elements/1.1/"
   xmlns:cc="http://creativecommons.org/ns#"
   xmlns:rdf="http://www.w3.org/1999/02/22-rdf-syntax-ns#"
   xmlns:svg="http://www.w3.org/2000/svg"
   xmlns="http://www.w3.org/2000/svg"
   width="500"
   height="500"
   viewBox="0 0 468.75002 468.75001"
   id="svg4837"
   version="1.1">
  <defs
     id="defs4839">
    <pattern
       id="EMFhbasepattern"
       patternUnits="userSpaceOnUse"
       width="6"
       height="6"
       x="0"
       y="0" />
  </defs>
  <metadata
     id="metadata4842">
    <rdf:RDF>
      <cc:Work
         rdf:about="">
        <dc:format>image/svg+xml</dc:format>
        <dc:type
           rdf:resource="http://purl.org/dc/dcmitype/StillImage" />
        <dc:title></dc:title>
      </cc:Work>
    </rdf:RDF>
  </metadata>
  <g
     style="fill:#89a02c"
     id="g6563"
     transform="matrix(1.0293185,0,0,1.0293185,578.49705,169.01044)">
    <path
       id="path5816"
       d="m -215.97739,11.355116 a 123.97619,123.97619 0 0 0 -5.85726,-11.55271051 123.97619,123.97619 0 0 0 -169.35492,-45.37851949 123.97619,123.97619 0 0 0 -45.37807,169.354674 123.97619,123.97619 0 0 0 5.71079,8.84647 123.59821,123.59821 0 0 1 -2.17091,-3.47076 123.59821,123.59821 0 0 1 45.24005,-168.838187 123.59821,123.59821 0 0 1 168.83819,45.2400587 123.59821,123.59821 0 0 1 2.97213,5.7989743 z"
       style="opacity:1;fill:#89a02c;fill-opacity:1;stroke:none;stroke-width:0.26458332;stroke-opacity:1" />
    <path
       style="opacity:1;fill:#89a02c;fill-opacity:1;stroke:none;stroke-width:0.26458332;stroke-opacity:1"
       d="m -428.3535,-19.604977 a 123.97619,123.97619 0 0 0 -8.51048,9.7644298 123.97619,123.97619 0 0 0 21.48903,174.0072372 123.97619,123.97619 0 0 0 174.00684,-21.48934 123.97619,123.97619 0 0 0 6.05698,-8.61314 123.59821,123.59821 0 0 1 -2.40247,3.31468 123.59821,123.59821 0 0 1 -173.47631,21.42345 123.59821,123.59821 0 0 1 -21.42348,-173.476286 123.59821,123.59821 0 0 1 4.25989,-4.931031 z"
       id="path5824" />
    <path
       id="path5826"
       d="m -385.28968,183.35059 a 123.97619,123.97619 0 0 0 11.72436,5.50564 123.97619,123.97619 0 0 0 161.43834,-68.39561 123.97619,123.97619 0 0 0 -68.3958,-161.437874 123.97619,123.97619 0 0 0 -9.94423,-3.462041 123.59821,123.59821 0 0 1 3.84656,1.401092 123.59821,123.59821 0 0 1 68.18693,160.945783 123.59821,123.59821 0 0 1 -160.94576,68.1869 123.59821,123.59821 0 0 1 -5.9104,-2.74389 z"
       style="opacity:1;fill:#89a02c;fill-opacity:1;stroke:none;stroke-width:0.26458332;stroke-opacity:1" />
    <ellipse
       style="opacity:1;fill:#89a02c;fill-opacity:1;stroke:none;stroke-width:0.09859978;stroke-opacity:1"
       id="path6434"
       cx="-320.54361"
       cy="75.189346"
       rx="11.343433"
       ry="14.814762"
       transform="matrix(0.99822721,0.05951839,-0.14297503,0.9897263,0,0)" />
    <path
       style="fill:#89a02c;fill-opacity:1;fill-rule:nonzero;stroke:none;stroke-width:0.09143648px;stroke-linecap:butt;stroke-linejoin:miter;stroke-opacity:1"
       d="m -356.94849,-15.676657 c 3.61396,3.186273 7.76073,9.4497977 9.00969,18.4432259 0.93276,6.716578 0.0586,14.5113221 -3.11394,20.9663701 -2.04615,3.889102 -4.74422,6.951691 -7.83508,10.551161 -2.80783,3.271013 -6.14134,7.255725 -8.46438,12.459263 -2.87792,6.695709 -3.91544,14.839577 -2.84228,22.593817 1.14121,8.245965 4.55915,15.55277 9.17537,20.497274 5.35094,5.731457 11.81764,7.932196 17.51655,7.494452 3.13411,-0.240739 5.94397,-1.236052 8.3534,-2.587616 2.40943,1.351564 5.21931,2.346877 8.35341,2.587616 5.6989,0.437744 12.1656,-1.762995 17.51655,-7.494452 4.61622,-4.944504 8.03417,-12.251309 9.17537,-20.497274 1.07317,-7.75424 0.0357,-15.898108 -2.84228,-22.593817 -2.32303,-5.203538 -5.65656,-9.18825 -8.46437,-12.459263 -3.09088,-3.59947 -5.78893,-6.662059 -7.83508,-10.551161 -3.17249,-6.455048 -4.0467,-14.2497921 -3.11394,-20.9663701 1.24896,-8.9934282 5.39572,-15.2569529 9.00969,-18.4432259 -3.54641,3.126708 -8.08473,8.9921227 -10.05958,18.0990939 -1.48048,6.827081 -1.37199,15.4168541 1.53147,23.3525581 1.69019,4.967294 4.16726,9.115089 6.64199,13.446428 2.3781,4.163747 4.3859,7.937917 5.44066,12.098385 1.34254,4.931635 1.24653,10.268253 0.0267,14.673256 -1.30083,4.697445 -3.80376,8.309928 -6.51353,10.34898 -3.1518,2.371658 -6.54664,2.752756 -9.19438,2.115284 -1.856,-0.446865 -3.44276,-1.371368 -4.72589,-2.367697 -2.82637,-3.142216 -7.4755,-2.937009 -9.89364,0 -1.28313,0.996329 -2.86964,1.920832 -4.72565,2.367697 -2.64774,0.637472 -6.04282,0.256374 -9.19462,-2.115284 -2.70978,-2.039052 -5.21246,-5.651535 -6.51328,-10.34898 -1.21981,-4.405003 -1.31581,-9.741621 0.0267,-14.673256 1.05475,-4.160468 3.06231,-7.934638 5.44039,-12.098385 2.47475,-4.331339 4.95206,-8.479134 6.64225,-13.446428 2.90346,-7.935704 3.01194,-16.5254771 1.53147,-23.3525581 -1.97485,-9.1069712 -6.51342,-14.9723859 -10.05982,-18.0990939 z"
       id="path6458" />
    <g
       id="g6466"
       transform="matrix(0.37390646,0,0,0.48361505,-471.40006,-13.579499)"
       style="fill:#89a02c;fill-opacity:1">
      <path
         id="path6442"
         d="m 252.03711,287.54926 c 7.20619,-6.58527 19.35123,-13.9042 35.29095,-17.17875 17.8039,-3.65751 37.64414,-1.50603 55.1891,7.36361 10.48118,4.80125 19.25203,11.60107 26.69066,17.59252 8.12021,6.54043 14.81718,12.23756 22.53138,16.82114 15.77936,10.20047 32.55848,12.43591 43.13036,10.85474 -10.07937,1.50752 -27.06837,4.69661 -47.58392,0.27141 -9.94023,-2.48555 -18.98269,-6.32304 -28.48383,-9.98186 -9.18006,-3.53517 -17.1485,-6.20002 -25.10365,-7.0092 -12.87217,-0.51068 -23.72831,3.63639 -31.25411,8.57186 -6.62195,4.34274 -11.17803,9.39898 -14.27698,12.23095 -55.82461,40.01878 -64.64967,-15.64159 -36.12996,-39.53642 z"
         style="fill:#89a02c;fill-opacity:1;fill-rule:nonzero;stroke:none;stroke-width:0.26458332px;stroke-linecap:butt;stroke-linejoin:miter;stroke-opacity:1" />
      <path
         style="fill:#89a02c;fill-opacity:1;fill-rule:nonzero;stroke:none;stroke-width:0.26458332px;stroke-linecap:butt;stroke-linejoin:miter;stroke-opacity:1"
         d="m 487.82739,287.54927 c -7.20619,-6.58527 -19.35123,-13.9042 -35.29095,-17.17875 -17.8039,-3.65751 -37.64414,-1.50604 -55.1891,7.36361 -10.48118,4.80124 -19.25203,11.60107 -26.69066,17.59252 -8.12021,6.54043 -14.81718,12.23756 -22.53138,16.82114 -15.77936,10.20047 -32.55848,12.43591 -43.13036,10.85474 10.07937,1.50751 27.06837,4.69661 47.58392,0.2714 9.94023,-2.48554 18.98269,-6.32304 28.48383,-9.98186 9.18006,-3.53517 17.1485,-6.20002 25.10365,-7.0092 12.87217,-0.51068 23.72831,3.63639 31.25411,8.57187 6.62195,4.34273 11.17803,9.39897 14.27698,12.23095 55.82461,40.01877 64.64967,-15.6416 36.12996,-39.53642 z"
         id="path6462" />
    </g>
  </g>
</svg>
